<svg xmlns="http://www.w3.org/2000/svg" xmlns:xlink="http://www.w3.org/1999/xlink" version="1.1"
    x="0px" y="0px" viewBox="0 0 100 100" enable-background="new 0 0 100 100" xml:space="preserve"><path fill-rule="evenodd" clip-rule="evenodd" d="M50.0361328,70.0742188h-0.0727539c-2.1865234,0-4.355957,0-6.5429688,0  l-3.1342773-1.4941406l-2.1879883-7.3085938l-0.2729492-11.7919922l-1.9316406-7.2353516  c0.3276367,3.9550781,0.6923828,7.6367188,0.8017578,11.2451172l-1.7680664-0.4736328  c-0.0908203-2.5888672-0.2734375-5.4677734-0.546875-8.8222656l-4.0825195,1.5859375  c-0.0180664-0.109375-0.0366211-0.21875-0.0541992-0.3095703l3.8818359-1.53125l-0.0361328-0.1826172l-3.8828125,1.53125  c-0.199707-1.8222656,1.3671875-3.8085938,4.1738281-4.4277344l-0.0180664-3.4082031l2.1323242-0.5292969l1.9321289,9.2041016  c0.21875,1.0029297,0.3828125,0.8017578,1.09375,0.5830078C42.0170898,45.8886719,46.0996094,45.4882813,50,45.5791016  c3.918457-0.0908203,7.9829102,0.3095703,10.4799805,1.1298828c0.7104492,0.21875,0.8745117,0.4199219,1.0932617-0.5830078  l1.9501953-9.2041016l2.1142578,0.5292969l-0.0185547,3.4082031c2.8066406,0.6191406,4.3740234,2.6054688,4.1738281,4.4277344  l-3.8823242-1.53125l-0.0361328,0.1826172l3.8999023,1.53125c-0.0175781,0.0908203-0.0541992,0.2001953-0.0727539,0.3095703  l-4.0825195-1.5859375c-0.2734375,3.3544922-0.4555664,6.2333984-0.5463867,8.8222656l-1.75,0.4736328  c0.1098633-3.6083984,0.4560547-7.2900391,0.7841797-11.2451172l-1.9321289,7.2353516l-0.2734375,11.7919922l-2.1689453,7.3085938  l-3.152832,1.4941406C54.3920898,70.0742188,52.2236328,70.0742188,50.0361328,70.0742188L50.0361328,70.0742188z"/>
    <path fill-rule="evenodd" clip-rule="evenodd"
        d="M50.1640625,34.8085938H50h-0.1640625v-0.0195313  c-5.0664063-0.0908203-10.2973633,0.5292969-13.3959961,1.8964844l-2.0776367,0.5283203  c-0.0185547-1.3857422-0.4916992-4.3564453-0.4916992-4.4658203c0-11.2636719,1.5307617-11.3730469,2.496582-14.3984375  l4.5200195-1.5117188l-0.4013672,1.5664063l-3.7177734,1.1308594l-0.8745117,3.6816406l1.1293945-3.1171875l3.2631836-0.65625  v13.7421875h0.2363281V19.1152344l0.6201172-2.40625l4.3012695-0.6367188  c0.3276367-0.0371094,2.6972656-0.0371094,4.5380859-0.0371094h0.0361328c1.8413086,0,4.2104492,0,4.5385742,0.0371094  l4.3007813,0.6367188l0.6201172,2.40625v14.0703125h0.2548828V19.4433594l3.2441406,0.65625l1.1303711,3.1171875  l-0.8754883-3.6816406l-3.6992188-1.1308594l-0.4194336-1.5664063l4.5200195,1.5117188  c0.9838867,3.0253906,2.4970703,3.1347656,2.4970703,14.3984375c0,0.109375-0.4741211,3.0800781-0.4741211,4.4658203  l-2.0957031-0.5283203c-3.0800781-1.3671875-8.3291016-1.9873047-13.3959961-1.8964844V34.8085938z" />
    <rect x="40.2675781" y="75.8710938" fill-rule="evenodd" clip-rule="evenodd" width="0.2182617"
        height="7.2529297" />
    <path fill-rule="evenodd" clip-rule="evenodd"
        d="M50.8017578,83.9628906  c5.9780273,0.0361328,12.0654297-0.65625,13.2319336-2.0410156l-0.21875-0.328125  c-1.9501953,1.3115234-2.2597656,1.1835938-4.4833984,1.5839844l0.2734375-0.3632813  c0.875-0.21875,1.7495117-0.4375,2.6245117-0.6386719l1.4765625-1.09375l0.4550781,0.7294922l1.6586914-3.1884766  c-0.4189453-8.0742188-0.3642578-17.0048828-0.765625-25.3710938l-1.7495117,0.4746094  c-0.0732422,2.8066406,0,5.5390625,0.3828125,8.3105469l-0.9111328,5.0849609L61.9375,61.7636719l-2.0229492,6.8525391  c1.0024414,3.5361328,0.8383789,4.9033203,0.2553711,4.9941406l-3.6816406,0.5107422l-5.8505859,0.1816406l0.0546875,2.8066406  h-1.3847656l0.0541992-2.8066406l-5.8500977-0.1816406l-3.6816406-0.5107422  c-0.5649414-0.0908203-0.7290039-1.4580078,0.2734375-4.9941406l-2.0415039-6.8525391l-0.8378906,5.3583984L36.3125,62.0371094  c0.3828125-2.7714844,0.4555664-5.5039063,0.3828125-8.3105469l-1.7495117-0.4746094  c-0.4008789,8.3662109-0.3466797,17.296875-0.765625,25.3710938l1.6767578,3.1884766L36.3125,81.0820313l1.4580078,1.09375  l2.515625,0.6015625v-6.7421875h0.199707v6.8886719l0.1826172,0.2539063  c-2.2236328-0.4003906-2.5332031-0.2724609-4.4833984-1.5839844l-0.21875,0.328125  c1.1850586,1.3847656,7.253418,2.0771484,13.2319336,2.0410156v-0.546875h1.6035156V83.9628906z" />
    <rect x="59.5136719" y="75.8710938" fill-rule="evenodd" clip-rule="evenodd" width="0.21875"
        height="7.2529297" />
    </svg>