<svg width="12" height="70" viewBox="0 0 12 70" fill="none" xmlns="http://www.w3.org/2000/svg">
<path d="M5.75537 0.475016C2.80985 0.475016 0.422038 2.86283 0.422038 5.80835C0.422037 8.75387 2.80985 11.1417 5.75537 11.1417C8.70089 11.1417 11.0887 8.75387 11.0887 5.80835C11.0887 2.86283 8.70089 0.475016 5.75537 0.475016ZM5.75537 58.4005C2.80985 58.4005 0.422035 60.7884 0.422035 63.7339C0.422035 66.6794 2.80985 69.0672 5.75537 69.0672C8.70089 69.0672 11.0887 66.6794 11.0887 63.7339C11.0887 60.7884 8.70089 58.4005 5.75537 58.4005ZM4.75537 5.80835L4.75537 7.87712L6.75537 7.87712L6.75537 5.80835L4.75537 5.80835ZM4.75537 12.0147L4.75537 16.1522L6.75537 16.1522L6.75537 12.0147L4.75537 12.0147ZM4.75537 20.2897L4.75537 24.4273L6.75537 24.4273L6.75537 20.2897L4.75537 20.2897ZM4.75537 28.5648L4.75537 32.7023L6.75537 32.7023L6.75537 28.5648L4.75537 28.5648ZM4.75537 36.8399L4.75537 40.9774L6.75537 40.9774L6.75537 36.8399L4.75537 36.8399ZM4.75537 45.115L4.75537 49.2525L6.75537 49.2525L6.75537 45.115L4.75537 45.115ZM4.75537 53.39L4.75537 57.5276L6.75537 57.5276L6.75537 53.39L4.75537 53.39ZM4.75537 61.6651L4.75537 63.7339L6.75537 63.7339L6.75537 61.6651L4.75537 61.6651Z" fill="#B23537"/>
</svg>
