<svg xmlns="http://www.w3.org/2000/svg" xmlns:xlink="http://www.w3.org/1999/xlink" version="1.1" x="0px" y="0px" viewBox="0 0 100 125" style="enable-background:new 0 0 100 100;" xml:space="preserve"><g><path d="M84.1,39.2l-20.4-3c-0.5-0.1-1-0.4-1.2-0.9l-7.4-15v0c-1-1.9-2.9-3.1-5-3.1s-4.1,1.2-5,3.1l-7.4,15   c-0.2,0.5-0.7,0.8-1.2,0.9l-16.6,2.4c-2.1,0.3-3.9,1.8-4.5,3.8c-0.7,2.1-0.1,4.3,1.4,5.8l12,11.7c0.4,0.4,0.6,0.9,0.5,1.4   l-2.8,16.5c-0.4,2.1,0.5,4.2,2.2,5.5c1,0.7,2.1,1.1,3.3,1.1c0.9,0,1.8-0.2,2.6-0.7L49.2,76c0.5-0.2,1-0.2,1.5,0l14.8,7.8   c1.9,1,4.2,0.8,5.9-0.4c1.7-1.3,2.6-3.4,2.2-5.5l-2.8-16.5c-0.1-0.5,0.1-1.1,0.5-1.4l14.8-14.4c1-1,1.4-2.5,0.9-3.8   S85.5,39.4,84.1,39.2z"/></g></svg>