<svg width="109" height="108" viewBox="0 0 109 108" fill="none" xmlns="http://www.w3.org/2000/svg">
<circle cx="54.4681" cy="54.266" r="52.2128" stroke="#FEF8E1" stroke-width="3"/>
<g clip-path="url(#clip0_97_68)">
<path d="M35.5094 78.2589V75.1918C35.5094 74.0159 34.8139 73.2493 33.6217 73.2493C33.0257 73.2493 32.3799 73.4537 31.9328 74.1183C31.5852 73.556 31.0885 73.2493 30.3434 73.2493C29.8465 73.2493 29.3501 73.4025 28.9525 73.9649V73.3515H27.9094V78.2589H28.9525V75.5495C28.9525 74.6807 29.3996 74.2716 30.0952 74.2716C30.7903 74.2716 31.1383 74.7317 31.1383 75.5495V78.2589H32.1814V75.5495C32.1814 74.6807 32.6779 74.2716 33.3237 74.2716C34.0192 74.2716 34.3668 74.7317 34.3668 75.5495V78.2589H35.5094ZM50.9572 73.3515H49.2686V71.8691H48.2254V73.3515H47.2817V74.3226H48.2252V76.572C48.2252 77.6968 48.6723 78.3612 49.8646 78.3612C50.3117 78.3612 50.8081 78.2079 51.1561 78.0035L50.8579 77.0832C50.5599 77.2877 50.2123 77.3389 49.9639 77.3389C49.4672 77.3389 49.2686 77.0322 49.2686 76.5208V74.3226H50.9572V73.3515ZM59.799 73.249C59.203 73.249 58.8057 73.556 58.5572 73.9649V73.3515H57.5141V78.2589H58.5572V75.4985C58.5572 74.6807 58.9048 74.2206 59.5506 74.2206C59.7492 74.2206 59.9977 74.2718 60.1963 74.3228L60.4943 73.3005C60.2957 73.2493 59.9977 73.2493 59.799 73.2493V73.249ZM46.4372 73.7604C45.9403 73.4025 45.245 73.2493 44.4999 73.2493C43.3079 73.2493 42.5132 73.8626 42.5132 74.8339C42.5132 75.652 43.1092 76.1119 44.1523 76.2654L44.649 76.3166C45.1954 76.4186 45.4934 76.5721 45.4934 76.8277C45.4934 77.1854 45.0961 77.4411 44.4006 77.4411C43.7052 77.4411 43.1588 77.1854 42.811 76.93L42.3143 77.7478C42.8608 78.1567 43.6059 78.3612 44.3508 78.3612C45.7417 78.3612 46.5366 77.6968 46.5366 76.7765C46.5366 75.9075 45.8908 75.4473 44.8972 75.2941L44.4006 75.2428C43.9534 75.1916 43.6059 75.0896 43.6059 74.7829C43.6059 74.425 43.9534 74.2206 44.4999 74.2206C45.0961 74.2206 45.6921 74.476 45.9901 74.6295L46.4372 73.7604ZM74.1544 73.2493C73.5581 73.2493 73.1608 73.556 72.9124 73.9649V73.3515H71.8692V78.2589H72.9124V75.4985C72.9124 74.6807 73.2601 74.2206 73.9057 74.2206C74.1046 74.2206 74.353 74.2718 74.5517 74.3228L74.8497 73.3005C74.651 73.2493 74.353 73.2493 74.1544 73.2493ZM60.8421 75.8052C60.8421 77.2876 61.8355 78.3612 63.3755 78.3612C64.0708 78.3612 64.5675 78.2079 65.0641 77.799L64.5675 76.93C64.1701 77.2367 63.7728 77.3899 63.3257 77.3899C62.4812 77.3899 61.8852 76.7765 61.8852 75.8052C61.8852 74.8852 62.4812 74.2716 63.3257 74.2206C63.7728 74.2206 64.1701 74.3738 64.5675 74.6807L65.0641 73.8117C64.5675 73.4025 64.0708 73.2493 63.3755 73.2493C61.8355 73.2493 60.8421 74.3228 60.8421 75.8052ZM70.4786 75.8052V73.3515H69.4355V73.9649C69.0877 73.505 68.591 73.2493 67.9452 73.2493C66.6041 73.2493 65.561 74.3228 65.561 75.8052C65.561 77.2876 66.6041 78.3612 67.9452 78.3612C68.6406 78.3612 69.1375 78.1057 69.4355 77.6456V78.2589H70.4786V75.8052ZM66.6537 75.8052C66.6537 74.9362 67.2001 74.2206 68.0941 74.2206C68.9386 74.2206 69.5348 74.8852 69.5348 75.8052C69.5348 76.6743 68.9386 77.3899 68.0941 77.3899C67.2001 77.3386 66.6537 76.6743 66.6537 75.8052ZM54.1861 73.2493C52.7952 73.2493 51.8017 74.2716 51.8017 75.8052C51.8017 77.3389 52.795 78.3612 54.2357 78.3612C54.931 78.3612 55.6266 78.1567 56.173 77.6968L55.6761 76.93C55.2788 77.2367 54.7821 77.4411 54.2855 77.4411C53.6397 77.4411 52.9939 77.1344 52.8448 76.2651H56.3717V75.8565C56.4215 74.2716 55.5272 73.2493 54.1859 73.2493H54.1861ZM54.1861 74.1693C54.8317 74.1693 55.279 74.5785 55.3781 75.3453H52.8946C52.9939 74.6807 53.441 74.1693 54.1861 74.1693ZM80.0653 75.8052V71.4089H79.0221V73.9649C78.6744 73.505 78.1777 73.2493 77.5319 73.2493C76.1908 73.2493 75.1477 74.3228 75.1477 75.8052C75.1477 77.2876 76.1908 78.3612 77.5319 78.3612C78.2275 78.3612 78.7241 78.1057 79.0221 77.6456V78.2589H80.0653V75.8052ZM76.2406 75.8052C76.2406 74.9362 76.7868 74.2206 77.681 74.2206C78.5255 74.2206 79.1215 74.8852 79.1215 75.8052C79.1215 76.6743 78.5255 77.3899 77.681 77.3899C76.7868 77.3386 76.2406 76.6743 76.2406 75.8052ZM41.3705 75.8052V73.3515H40.3274V73.9649C39.9797 73.505 39.483 73.2493 38.8372 73.2493C37.4961 73.2493 36.453 74.3228 36.453 75.8052C36.453 77.2876 37.4961 78.3612 38.8372 78.3612C39.5328 78.3612 40.0294 78.1057 40.3274 77.6456V78.2589H41.3705V75.8052ZM37.4961 75.8052C37.4961 74.9362 38.0425 74.2206 38.9365 74.2206C39.781 74.2206 40.3772 74.8852 40.3772 75.8052C40.3772 76.6743 39.781 77.3899 38.9365 77.3899C38.0425 77.3386 37.4961 76.6743 37.4961 75.8052Z" fill="white"/>
<path d="M46.0895 36.085H61.7362V65.0189H46.0895V36.085Z" fill="#FF6E1A"/>
<path d="M47.083 50.5521C47.083 44.6734 49.7652 39.4591 53.8879 36.0851C50.8581 33.6314 47.0335 32.1489 42.861 32.1489C32.9759 32.1489 24.9788 40.3791 24.9788 50.5521C24.9788 60.7249 32.9759 68.9553 42.8608 68.9553C47.0332 68.9553 50.8579 67.4729 53.8879 65.019C49.7652 61.6962 47.083 56.4308 47.083 50.5521Z" fill="#FF0623"/>
<path d="M82.8468 50.5521C82.8468 60.7249 74.8496 68.9553 64.9647 68.9553C60.7923 68.9553 56.9676 67.4729 53.9376 65.019C58.1101 61.6452 60.7427 56.4308 60.7427 50.5521C60.7427 44.6734 58.0603 39.4591 53.9376 36.0851C56.9674 33.6314 60.7923 32.1489 64.9647 32.1489C74.8496 32.1489 82.847 40.4304 82.847 50.5521H82.8468Z" fill="#F8A934"/>
</g>
<defs>
<clipPath id="clip0_97_68">
<rect width="57.9255" height="46.3404" fill="white" transform="translate(24.9788 32.1489)"/>
</clipPath>
</defs>
</svg>
