<svg xmlns="http://www.w3.org/2000/svg" version="1.1" viewBox="-5.0 -10.0 110.0 135.0">
    <path
        d="m49.938 0c27.562 0 49.938 22.375 49.938 49.938 0 27.559-22.375 49.938-49.938 49.938-27.559 0-49.938-22.379-49.938-49.938 0-27.562 22.379-49.938 49.938-49.938zm0 9.3633c22.395 0 40.574 18.18 40.574 40.574s-18.18 40.574-40.574 40.574-40.574-18.18-40.574-40.574 18.18-40.574 40.574-40.574zm-14.043 14.043v58.91h9.3633v-21.457h9.3633c4.9648 0 9.7305-1.9727 13.238-5.4844 3.5156-3.5117 5.4883-8.2734 5.4883-13.242 0-10.34-8.3867-18.727-18.727-18.727zm9.3633 28.09h9.3633c2.4805 0 4.8633-0.98438 6.6211-2.7422 1.7539-1.7539 2.7422-4.1367 2.7422-6.6211 0-5.1719-4.1914-9.3633-9.3633-9.3633h-9.3633z"
        fill-rule="evenodd" />
</svg>