<svg xmlns="http://www.w3.org/2000/svg" data-name="Layer 3" viewBox="0 0 64 80" x="0px" y="0px"><title>speeding ticket-speed-document-file-car-travel</title><path d="M30,59a5.009,5.009,0,0,1-4.9-4H22a1,1,0,0,1-1-1V50a4.991,4.991,0,0,1,4.572-4.957l4.28-3.8A16.511,16.511,0,0,1,43,37.134V3H3V61H43V55H34.9A5.009,5.009,0,0,1,30,59ZM41,32H39a3.857,3.857,0,0,0-2.707,1.121l-1.586,1.586A1,1,0,0,1,34,35a.987.987,0,0,1-.383-.076A1,1,0,0,1,33,34V32.414l-.879.879A5.868,5.868,0,0,1,28,35V33a3.857,3.857,0,0,0,2.707-1.121l2.586-2.586A1,1,0,0,1,35,30v1.589A5.871,5.871,0,0,1,39,30h2ZM15,6a1,1,0,0,1,1-1H40a1,1,0,0,1,1,1V22a1,1,0,0,1-1,1H16a1,1,0,0,1-1-1ZM9,15A3.992,3.992,0,0,1,8,7.142V5h2V7.142A4,4,0,0,1,13,11H11a2,2,0,1,0-2,2,3.992,3.992,0,0,1,1,7.858V23H8V20.858A4,4,0,0,1,5,17H7a2,2,0,1,0,2-2ZM5,25H41v2H5Zm0,4H26v2H5Zm0,4H26v2H5ZM9,49v2H7V49Zm10,6H5V53H19Zm0-4H11V49h8Z"/><path d="M39,7H17V21H39ZM37,19H19V17H37Zm0-4H19V13H37Zm0-4H19V9H37Z"/><path d="M42,45H53.37l-2.55-2.267A14.752,14.752,0,0,0,42,39.046Z"/><circle cx="30" cy="54" r="3"/><path d="M40,45V39.046a14.752,14.752,0,0,0-8.82,3.687L28.63,45Z"/><path d="M58,47H26a3,3,0,0,0-3,3v3h2.1a5,5,0,0,1,9.8,0H47.1a5,5,0,0,1,9.8,0H61V50A3,3,0,0,0,58,47Z"/><circle cx="52" cy="54" r="3"/></svg>