<svg xmlns="http://www.w3.org/2000/svg" xmlns:xlink="http://www.w3.org/1999/xlink" version="1.1"
    x="0px" y="0px" viewBox="0 0 464 580" style="enable-background:new 0 0 464 464;"
    xml:space="preserve"><g><path d="M320,48.268c-16.793,1.119-33.175,5.753-48,13.583v18.536c14.393-9.209,30.853-14.739,48-16.056V48.268z"/><path
    d="M416,168c0-48.523-39.477-88-88-88c-20.515,0-40.26,7.129-56,20.128V256h56C376.523,256,416,216.523,416,168z M288,192v-8   h16v8c0,8.822,7.178,16,16,16h16c8.822,0,16-7.178,16-16s-7.178-16-16-16h-16c-17.645,0-32-14.355-32-32s14.355-32,32-32V96h16v16   c17.645,0,32,14.355,32,32v8h-16v-8c0-8.822-7.178-16-16-16h-16c-8.822,0-16,7.178-16,16s7.178,16,16,16h16   c17.645,0,32,14.355,32,32s-14.355,32-32,32v16h-16v-16C302.355,224,288,209.645,288,192z" /><rect
    x="272" y="304" width="16" height="32" /><path
    d="M136.001,14.702C139.449,25.049,149.094,32,160,32s20.551-6.952,23.999-17.298l4.764-14.291   c0.047-0.14,0.106-0.272,0.155-0.411h-57.837c0.049,0.138,0.108,0.271,0.155,0.41L136.001,14.702z M160,8c4.418,0,8,3.582,8,8   s-3.582,8-8,8s-8-3.582-8-8S155.582,8,160,8z" /><path
    d="M104.48,238.936L106.685,272H256V24c0-13.234-10.767-24-24-24h-8h-12.469c-3.448,0-6.499,2.198-7.589,5.47l-4.764,14.291   C193.549,36.652,177.804,48,160,48s-33.549-11.348-39.179-28.238L116.057,5.47c-1.09-3.272-4.14-5.47-7.589-5.47H96h-8   C74.767,0,64,10.766,64,24v208.287C70.812,227.093,79.308,224,88.516,224C96.909,224,103.922,230.561,104.48,238.936z M160,80   c44.112,0,80,35.888,80,80s-35.888,80-80,80s-80-35.888-80-80S115.888,80,160,80z" /><path
    d="M160,224c35.29,0,64-28.71,64-64s-28.71-64-64-64s-64,28.71-64,64S124.71,224,160,224z M133.657,162.343L144,172.686   l42.343-42.343l11.314,11.313L144,195.314l-21.657-21.657L133.657,162.343z" /><path
    d="M232,368c13.233,0,24-10.766,24-24v-56H107.751l1.067,16H176c8.822,0,16,7.178,16,16v16c0,8.822-7.178,16-16,16h-64.061   c0.038,1.215,0.061,2.429,0.061,3.633c0,4.136-0.247,8.263-0.689,12.367H232z" /><path
    d="M435.493,221.184l-14.769-6.117c-3.776,7.409-8.415,14.306-13.782,20.561l11.327,11.327   C425.082,239.143,430.88,230.479,435.493,221.184z" /><path
    d="M447.712,176h-16.017c-0.643,8.415-2.299,16.55-4.834,24.291l14.758,6.113C444.924,196.686,447.007,186.482,447.712,176z" /><path
    d="M431.695,160h16.032c-0.699-10.572-2.765-20.777-6.038-30.432l-14.828,6.142C429.396,143.45,431.052,151.585,431.695,160z" /><path
    d="M420.724,120.933l14.815-6.136c-4.639-9.339-10.456-17.992-17.26-25.761l-11.337,11.336   C412.309,106.628,416.948,113.524,420.724,120.933z" /><path
    d="M366.433,54.311c-9.655-3.273-19.86-5.339-30.433-6.038v16.032c8.415,0.643,16.55,2.299,24.291,4.834L366.433,54.311z" /><path
    d="M406.965,77.721c-7.77-6.805-16.423-12.622-25.762-17.261l-6.137,14.815c7.409,3.776,14.306,8.415,20.562,13.782   L406.965,77.721z" /><path
    d="M365.532,264.99c4.26,3.487,7.828,7.886,10.416,13.026c11.452-5,21.875-11.697,31.02-19.733l-11.34-11.34   C386.761,254.55,376.603,260.691,365.532,264.99z" /><path
    d="M184,384c-22.056,0-40,17.944-40,40s17.944,40,40,40s40-17.944,40-40S206.056,384,184,384z M184,440   c-8.837,0-16-7.163-16-16s7.163-16,16-16s16,7.163,16,16S192.837,440,184,440z" /><polygon
    points="176,320 109.885,320 110.952,336 176,336  " /><path
    d="M449.767,357.579l-41.999-4.667c-8.126-0.903-15.16-5.809-18.815-13.121l-27.263-54.525   C357.598,277.083,349.372,272,340.223,272H272v16h59.056c6.101,0,11.585,3.39,14.312,8.846L368,342.111v26.469   c2.614-0.376,5.283-0.581,8-0.581c22.294,0,41.582,13.098,50.586,32H464v-26.519C464,365.317,457.881,358.48,449.767,357.579z" /><path
    d="M288,352h-16.805c-3.717,18.236-19.878,32-39.195,32h-8.862c4.696,4.595,8.59,10.003,11.447,16H288V352z" /><path
    d="M352,373.414V352h-48v48h21.414C330.951,388.376,340.376,378.951,352,373.414z" /><path
    d="M239.419,416c0.376,2.614,0.581,5.283,0.581,8s-0.205,5.386-0.581,8h81.161c-0.376-2.614-0.581-5.283-0.581-8   s0.205-5.386,0.581-8H239.419z" /><path
    d="M432,424c0,2.717-0.205,5.386-0.581,8H456c4.411,0,8-3.589,8-8v-8h-32.581C431.795,418.614,432,421.283,432,424z" /><path
    d="M376,384c-22.056,0-40,17.944-40,40s17.944,40,40,40s40-17.944,40-40S398.056,384,376,384z M376,440   c-8.837,0-16-7.163-16-16s7.163-16,16-16s16,7.163,16,16S384.837,440,376,440z" /><path
    d="M13.416,416H75.99C88.893,398.665,96,377.245,96,355.633c0-2.226-0.075-4.489-0.224-6.728L88.516,240   C74.998,240,64,250.998,64,264.516V288v25.373c0,16.729-6.515,32.456-18.344,44.285l-11.313-11.314   C43.15,337.537,48,325.828,48,313.373V288v-23.484V163.314l-22.225,22.225C9.153,202.16,0,224.259,0,247.765v117.748   c0,11.246,2.117,22.242,6.294,32.682L13.416,416z" /><polygon
    points="304,304 304,336 347.056,336 331.056,304  " /><path
    d="M144.862,384h-36.393c-2.819,11.24-7.301,22.051-13.268,32H112v16h16.581c-0.376-2.614-0.581-5.283-0.581-8   C128,408.342,134.467,394.172,144.862,384z" /><rect
    y="432" width="96" height="32" /></g>
    </svg>