<svg xmlns="http://www.w3.org/2000/svg" version="1.1" viewBox="-5.0 -10.0 110.0 135.0">
    <g>
        <path
            d="m50 20.793c-9 0-16.332 7.332-16.332 16.332s7.332 16.332 16.332 16.332 16.332-7.332 16.332-16.332-7.332-16.332-16.332-16.332zm0 28.539c-6.707 0-12.168-5.457-12.168-12.168 0-6.707 5.4609-12.207 12.168-12.207s12.168 5.457 12.168 12.168c0 6.707-5.4609 12.207-12.168 12.207z" />
        <path
            d="m50 6.25c-24.125 0-43.75 19.625-43.75 43.75 0 14.457 7.082 27.25 17.918 35.207 0.16797 0.16797 0.375 0.33203 0.58203 0.45703 3.707 2.625 7.832 4.75 12.293 6.125 0.082031 0.042969 0.125 0.042969 0.20703 0.042969 4.043 1.25 8.332 1.918 12.75 1.918 4.457 0 8.707-0.66797 12.75-1.918 0.16797-0.042969 0.33203-0.082031 0.45703-0.16797 4.293-1.375 8.25-3.375 11.875-5.918 0.29297-0.125 0.54297-0.33203 0.70703-0.54297 10.832-7.957 17.918-20.793 17.918-35.207 0.042969-24.121-19.582-43.746-43.707-43.746zm14.375 80.582-0.042969-12.207c0-1.168-0.91797-2.082-2.082-2.082-1.168 0-2.082 0.91797-2.082 2.082l0.042969 9.957c0 0.042969-0.042969 0.082031-0.042969 0.125s0.042969 0.082031 0.042969 0.125v3.375c-3.25 0.875-6.668 1.375-10.207 1.375-3.457 0-6.832-0.5-10.043-1.332l-0.003907-13.668c0-1.168-0.91797-2.082-2.082-2.082-1.168 0-2.082 0.91797-2.082 2.082v12.332c-2.832-1.082-5.543-2.5-8.043-4.168v-13.082c0-7.207 5.457-13.25 12.543-14.043 2.793 2.125 6.207 3.375 9.793 3.375 3.543 0 6.957-1.207 9.75-3.332 1.543 0.16797 3.043 0.54297 4.5 1.25 4.582 2.168 7.543 7.207 7.543 12.918l0.29297 13c-2.4219 1.5859-5.0469 2.918-7.7969 4zm11.875-7.2891-0.20703-9.793c0-7.25-3.875-13.75-9.875-16.582-2.082-1.043-4.293-1.582-6.582-1.75-0.042969 0-0.082032 0-0.16797-0.042969-0.25 0-0.54297 0.042969-0.79297 0.125-0.082031 0.042969-0.16797 0.082031-0.25 0.125-0.16797 0.082031-0.29297 0.125-0.45703 0.25-4.5 3.832-11.5 3.793-15.793 0-0.45703-0.41797-1.043-0.54297-1.625-0.5-9.543 0.70703-17 8.707-17 18.332v9.75c-7.957-7.2891-13.082-17.789-13.082-29.457 0-21.832 17.75-39.582 39.582-39.582s39.582 17.75 39.582 39.582c0 11.75-5.1641 22.293-13.332 29.543z" />
    </g>
</svg>