<svg xmlns="http://www.w3.org/2000/svg" version="1.1" viewBox="-5.0 -10.0 110.0 135.0">
    <path
        d="m50 0c-27.637 0-50 22.363-50 50s22.363 50 50 50 50-22.363 50-50-22.363-50-50-50zm24.832 79.543c-0.41797 0.35156-1.0781 0.089843-1.1016-0.48438-0.14844-4.3281-1.0312-10.762-6.9492-16.676-2.0859-2.0898-4.5078-3.75-7.1992-4.9414-0.019531-0.007812-0.046875-0.019531-0.050781-0.066406-0.003906-0.035156 0.007812-0.039062 0.023438-0.050781 4.8203-3.1914 7.7266-8.5469 7.7695-14.316 0.066406-9.5898-7.7344-17.453-17.324-17.453-9.5508 0-17.32 7.7695-17.32 17.32 0 5.832 2.9062 11.238 7.7773 14.457 0.019531 0.015625 0.035157 0.023438 0.03125 0.054688-0.003906 0.027343-0.011719 0.027343-0.035156 0.039062-11.582 5.0977-13.57 14.855-14.055 21.75-0.042969 0.55859-0.67969 0.82812-1.1055 0.46875-8.8203-7.3594-13.887-18.168-13.887-29.645 0-21.309 17.238-38.594 38.594-38.594h0.0625c21.453 0.03125 38.641 17.32 38.531 38.797-0.058594 11.336-5.0781 22.027-13.762 29.34z" />
</svg>