<svg xmlns="http://www.w3.org/2000/svg" version="1.1" viewBox="-5.0 -10.0 110.0 135.0">
 <path d="m50 9c-22.609 0-41 18.391-41 41 0 9.8594 3.5508 19.391 10 26.828 7.7891 9 19.09 14.172 31 14.172 11.52 0 22.578-4.8906 30.352-13.422 6.8672-7.5586 10.648-17.348 10.648-27.578 0-22.609-18.391-41-41-41zm-26.031 67.281c0.078125-0.10156 0.17188-0.19141 0.23047-0.30078 3.6094-6.5117 11.352-9.6211 14.52-10.66 1.4297-0.46875 2.5781-1.5391 3.1484-2.9414l0.73828-1.7891c2.6719 2.2812 5.3008 3.4414 7.9414 3.4414 2.3711 0 4.7305-0.92969 7.1211-2.7617l0.46094 1.1211c0.57031 1.3984 1.7188 2.4688 3.1602 2.9414 3.1602 1.0391 10.898 4.1484 14.52 10.66 0.070312 0.12109 0.14844 0.21875 0.23828 0.32031-6.918 6.8086-16.309 10.688-26.047 10.688-9.7891 0-19.129-3.8789-26.031-10.719zm33.07-19.793c-0.007812 0-0.007812 0 0 0l-0.011718 0.011719c-4.6602 4.6602-8.3008 4.6484-12.961-0.011719-0.16016-0.16016-0.30859-0.32812-0.46094-0.5-5.1406-6.2617-5.3906-21.621-1.5391-25.469 2.332-2.3477 5.4141-3.5195 8.4844-3.5195 3.0703 0 6.1484 1.1719 8.4883 3.5117 4.0195 4.0273 3.4805 20.488-2 25.977zm21.77 16.73c-4.4492-7.1797-12.789-10.57-16.27-11.711-0.32031-0.10937-0.57812-0.35156-0.71094-0.66016l-1.0586-2.5703c2.8906-3.6992 4.3711-9.8086 4.7812-14.602 0.28906-3.4102 0.51953-11.789-3.6797-15.98-6.2383-6.2383-16.391-6.2383-22.629 0-4.0391 4.0391-3.9609 12.051-3.7305 15.309 0.37891 5.6094 1.9297 10.91 4.1289 14.309l-1.4609 3.5508c-0.12891 0.32031-0.39063 0.55859-0.71094 0.66016-3.4805 1.1406-11.82 4.5312-16.27 11.711-5.2891-6.5742-8.1992-14.766-8.1992-23.234 0-20.398 16.602-37 37-37s37 16.602 37 37c0 8.5-2.8984 16.66-8.1914 23.219z"/>
</svg>